<svg xmlns="http://www.w3.org/2000/svg" xmlns:xlink="http://www.w3.org/1999/xlink" viewBox="0 0 175.92 175.93"><defs><style>.cls-1{fill:url(#radial-gradient);}.cls-2{fill:#fff;}</style><radialGradient id="radial-gradient" cx="51.53" cy="189.55" r="233.12" gradientUnits="userSpaceOnUse"><stop offset="0.1" stop-color="#ffd879"/><stop offset="0.15" stop-color="#fccb76"/><stop offset="0.26" stop-color="#f5aa6c"/><stop offset="0.4" stop-color="#e9755e"/><stop offset="0.45" stop-color="#e45f58"/><stop offset="0.68" stop-color="#d22a9c"/><stop offset="1" stop-color="#6968df"/></radialGradient></defs><title>instagram</title><g id="Capa_2" data-name="Capa 2"><g id="Layer_1" data-name="Layer 1"><path class="cls-1" d="M175.92,139.79a36.14,36.14,0,0,1-36.13,36.14H36.13A36.14,36.14,0,0,1,0,139.79V36.14A36.14,36.14,0,0,1,36.13,0H139.79a36.14,36.14,0,0,1,36.13,36.14Z"/><path class="cls-2" d="M113.42,21.63H62.5A40.88,40.88,0,0,0,21.62,62.51v50.92A40.87,40.87,0,0,0,62.5,154.3h50.92a40.87,40.87,0,0,0,40.88-40.87V62.51A40.88,40.88,0,0,0,113.42,21.63Zm28.14,86.91a33,33,0,0,1-33,33H67.39a33,33,0,0,1-33-33V67.39a33,33,0,0,1,33-33h41.15a33,33,0,0,1,33,33Z"/><path class="cls-2" d="M89.74,53.25a34.95,34.95,0,1,0,34.94,34.94A34.94,34.94,0,0,0,89.74,53.25Zm0,56a21,21,0,1,1,21-21A21,21,0,0,1,89.74,109.22Z"/><path class="cls-2" d="M131.15,52.7a8.89,8.89,0,1,1-8.89-8.89A8.89,8.89,0,0,1,131.15,52.7Z"/></g></g></svg>