<svg xmlns="http://www.w3.org/2000/svg" viewBox="0 0 637.59 83.65"><defs><style>.cls-1,.cls-2{fill:#fff;}.cls-2{font-size:35px;font-family:Roboto-Regular, Roboto;}.cls-3{letter-spacing:-0.02em;}.cls-4{letter-spacing:-0.02em;}.cls-5{letter-spacing:0em;}</style></defs><g id="Capa_2" data-name="Capa 2"><g id="Capa_1-2" data-name="Capa 1"><g id="Grupo_883" data-name="Grupo 883"><g id="Grupo_882" data-name="Grupo 882"><path id="Trazado_5772" data-name="Trazado 5772" class="cls-1" d="M146.26,61.38a27.21,27.21,0,0,1-2.35,11.68,17.75,17.75,0,0,1-6.75,7.75,19.88,19.88,0,0,1-20.06,0,17.85,17.85,0,0,1-6.82-7.7,26.32,26.32,0,0,1-2.45-11.51V59.39a27.13,27.13,0,0,1,2.4-11.73A17.91,17.91,0,0,1,117,39.88a19.9,19.9,0,0,1,20,0,17.91,17.91,0,0,1,6.79,7.78,27.05,27.05,0,0,1,2.4,11.7Zm-9.42-2.05q0-7.09-2.54-10.78a9,9,0,0,0-14.48,0q-2.53,3.64-2.57,10.68v2.2q0,6.91,2.54,10.72a8.91,8.91,0,0,0,14.51.14q2.5-3.67,2.54-10.71Z"/><path id="Trazado_5773" data-name="Trazado 5773" class="cls-1" d="M182.65,66.46q0,8.06-3.44,12.57a11.39,11.39,0,0,1-9.61,4.51,10.46,10.46,0,0,1-8.71-4.18l-.4,3.56h-8.06V35.31h9V52.39a10.18,10.18,0,0,1,8.15-3.63,11.5,11.5,0,0,1,9.62,4.51q3.5,4.51,3.49,12.7Zm-9-.65q0-5.09-1.61-7.42a5.44,5.44,0,0,0-4.8-2.34c-2.86,0-4.82,1.16-5.89,3.5V72.78c1.09,2.36,3.08,3.54,6,3.54A5.53,5.53,0,0,0,173,72a21.83,21.83,0,0,0,.65-6.23Z"/><path id="Trazado_5774" data-name="Trazado 5774" class="cls-1" d="M206.33,73.65a2.86,2.86,0,0,0-1.63-2.58,18.19,18.19,0,0,0-5.22-1.69q-12-2.52-12-10.17a9.19,9.19,0,0,1,3.7-7.45,14.92,14.92,0,0,1,9.69-3q6.38,0,10.21,3A9.51,9.51,0,0,1,215,59.58h-9a4.35,4.35,0,0,0-1.24-3.18,5.29,5.29,0,0,0-3.88-1.25,5.39,5.39,0,0,0-3.5,1,3.24,3.24,0,0,0-1.24,2.61,2.76,2.76,0,0,0,1.41,2.4,14.67,14.67,0,0,0,4.76,1.58,39,39,0,0,1,5.64,1.5q7.09,2.61,7.1,9a8.73,8.73,0,0,1-3.94,7.42q-3.93,2.85-10.16,2.84a17.7,17.7,0,0,1-7.49-1.5,12.74,12.74,0,0,1-5.13-4.12,9.66,9.66,0,0,1-1.86-5.66H195a4.69,4.69,0,0,0,1.76,3.66,7,7,0,0,0,4.4,1.27,6.49,6.49,0,0,0,3.89-1A3,3,0,0,0,206.33,73.65Z"/><path id="Trazado_5775" data-name="Trazado 5775" class="cls-1" d="M236.24,83.54a16.45,16.45,0,0,1-12-4.53Q219.59,74.5,219.6,67v-.87a20.18,20.18,0,0,1,2-9,14.26,14.26,0,0,1,5.53-6.13,15.53,15.53,0,0,1,8.17-2.16q6.88,0,10.83,4.34T250,65.41v3.65H228.68a8.26,8.26,0,0,0,2.62,5.27,7.91,7.91,0,0,0,5.53,2,9.67,9.67,0,0,0,8.09-3.75l4.4,4.93a13.37,13.37,0,0,1-5.46,4.44A17.86,17.86,0,0,1,236.24,83.54Zm-1-27.56a5.66,5.66,0,0,0-4.33,1.81A9.42,9.42,0,0,0,228.77,63h12.46v-.72a6.67,6.67,0,0,0-1.61-4.62,5.77,5.77,0,0,0-4.4-1.63Z"/><path id="Trazado_5776" data-name="Trazado 5776" class="cls-1" d="M274,57.78a24.79,24.79,0,0,0-3.22-.24c-3.39,0-5.61,1.14-6.67,3.44V82.92h-9V49.38h8.47l.24,4q2.7-4.62,7.47-4.62a9.38,9.38,0,0,1,2.79.41Z"/><path id="Trazado_5777" data-name="Trazado 5777" class="cls-1" d="M291.38,72l6.23-22.6H307L295.66,82.92H287.1L275.79,49.38h9.36Z"/><path id="Trazado_5778" data-name="Trazado 5778" class="cls-1" d="M329.88,82.92a9.88,9.88,0,0,1-.9-3,10.84,10.84,0,0,1-8.47,3.63,11.9,11.9,0,0,1-8.16-2.85,9.17,9.17,0,0,1-3.24-7.19,9.49,9.49,0,0,1,3.95-8.18q4-2.86,11.42-2.89h4.12V60.51a5.52,5.52,0,0,0-1.19-3.72,4.69,4.69,0,0,0-3.77-1.39,5.33,5.33,0,0,0-3.54,1.08,3.69,3.69,0,0,0-1.29,3h-9a9,9,0,0,1,1.8-5.4,12,12,0,0,1,5.08-3.89,18.86,18.86,0,0,1,7.38-1.41q6.19,0,9.84,3.12t3.64,8.75V75.17a16,16,0,0,0,1.34,7.22v.53Zm-7.41-6.23a7.78,7.78,0,0,0,3.66-.88,5.82,5.82,0,0,0,2.47-2.37V67.67h-3.34c-4.49,0-6.87,1.55-7.16,4.65l0,.52a3.59,3.59,0,0,0,1.17,2.76A4.54,4.54,0,0,0,322.47,76.69Z"/><path id="Trazado_5779" data-name="Trazado 5779" class="cls-1" d="M355.2,41.14v8.24h5.73V56H355.2V72.69a4,4,0,0,0,.71,2.67,3.63,3.63,0,0,0,2.73.8,13.67,13.67,0,0,0,2.63-.22v6.79a18.39,18.39,0,0,1-5.42.81q-9.42,0-9.61-9.52V56h-4.9V49.38h4.9V41.14Z"/><path id="Trazado_5780" data-name="Trazado 5780" class="cls-1" d="M363.6,65.84A19.79,19.79,0,0,1,365.52,57a14.06,14.06,0,0,1,5.53-6.05,16.22,16.22,0,0,1,8.39-2.14,15.29,15.29,0,0,1,11.08,4.16q4.29,4.15,4.79,11.28l.06,2.29q0,7.73-4.31,12.38T379.5,83.54c-4.84,0-8.69-1.55-11.58-4.65s-4.32-7.31-4.32-12.64Zm9,.64c0,3.18.59,5.62,1.79,7.31a6.46,6.46,0,0,0,10.23,0c1.22-1.67,1.83-4.33,1.83-8q0-4.68-1.83-7.26A6,6,0,0,0,379.44,56a5.86,5.86,0,0,0-5.09,2.57c-1.2,1.7-1.8,4.35-1.79,7.93Z"/><path id="Trazado_5781" data-name="Trazado 5781" class="cls-1" d="M419.73,57.78a24.92,24.92,0,0,0-3.22-.24c-3.39,0-5.61,1.14-6.67,3.44V82.92h-9V49.38h8.47l.24,4q2.7-4.62,7.47-4.62a9.38,9.38,0,0,1,2.79.41Z"/><path id="Trazado_5782" data-name="Trazado 5782" class="cls-1" d="M424,40.7a4.42,4.42,0,0,1,1.34-3.31,5.82,5.82,0,0,1,7.33,0,4.72,4.72,0,0,1,0,6.66,5.76,5.76,0,0,1-7.29,0A4.38,4.38,0,0,1,424,40.7Zm9.51,42.22h-9V49.38h9Z"/><path id="Trazado_5783" data-name="Trazado 5783" class="cls-1" d="M439.47,65.84A19.93,19.93,0,0,1,441.4,57a14.06,14.06,0,0,1,5.53-6.05,16.18,16.18,0,0,1,8.38-2.14,15.26,15.26,0,0,1,11.08,4.16q4.29,4.15,4.79,11.28l.06,2.29q0,7.73-4.31,12.38t-11.56,4.67q-7.25,0-11.57-4.65t-4.33-12.64Zm9,.64q0,4.77,1.8,7.31a6.46,6.46,0,0,0,10.23,0c1.22-1.67,1.83-4.33,1.83-8q0-4.68-1.83-7.26A6,6,0,0,0,455.31,56a5.86,5.86,0,0,0-5.08,2.57c-1.2,1.7-1.8,4.35-1.8,7.93Z"/><path id="Trazado_5784" data-name="Trazado 5784" class="cls-1" d="M504.5,64.48H486.65V82.92h-9.3V37.79h29.38v7.53H486.65V57H504.5Z"/><path id="Trazado_5785" data-name="Trazado 5785" class="cls-1" d="M511.47,40.7a4.39,4.39,0,0,1,1.35-3.31,5.82,5.82,0,0,1,7.33,0,4.72,4.72,0,0,1,0,6.66,5.76,5.76,0,0,1-7.29,0A4.39,4.39,0,0,1,511.47,40.7ZM521,82.92h-9V49.38h9Z"/><path id="Trazado_5786" data-name="Trazado 5786" class="cls-1" d="M546.53,73.65a2.86,2.86,0,0,0-1.63-2.58,18.19,18.19,0,0,0-5.22-1.69q-12-2.52-12-10.17a9.19,9.19,0,0,1,3.7-7.45,14.92,14.92,0,0,1,9.69-3q6.38,0,10.21,3a9.48,9.48,0,0,1,3.83,7.81h-9A4.35,4.35,0,0,0,545,56.4a5.29,5.29,0,0,0-3.88-1.25,5.39,5.39,0,0,0-3.5,1,3.24,3.24,0,0,0-1.24,2.61,2.76,2.76,0,0,0,1.41,2.4,14.67,14.67,0,0,0,4.76,1.58,39,39,0,0,1,5.64,1.5q7.1,2.61,7.1,9a8.73,8.73,0,0,1-3.94,7.42q-3.93,2.85-10.16,2.84a17.7,17.7,0,0,1-7.49-1.5,12.67,12.67,0,0,1-5.13-4.12,9.59,9.59,0,0,1-1.86-5.66h8.5a4.69,4.69,0,0,0,1.76,3.66,7,7,0,0,0,4.4,1.27,6.49,6.49,0,0,0,3.89-1A3,3,0,0,0,546.53,73.65Z"/><path id="Trazado_5787" data-name="Trazado 5787" class="cls-1" d="M575,76.32A5.85,5.85,0,0,0,579,75a4.73,4.73,0,0,0,1.61-3.62H589a11.43,11.43,0,0,1-1.86,6.24,12.22,12.22,0,0,1-5,4.4,15.66,15.66,0,0,1-7,1.57q-7.2,0-11.35-4.57t-4.15-12.63v-.59q0-7.76,4.12-12.36T575,48.77q6.3,0,10.09,3.58A12.66,12.66,0,0,1,589,61.88h-8.4A6.15,6.15,0,0,0,579,57.62a6,6,0,0,0-8.82.65q-1.59,2.28-1.6,7.4v.93q0,5.19,1.59,7.45A5.45,5.45,0,0,0,575,76.32Z"/><path id="Trazado_5788" data-name="Trazado 5788" class="cls-1" d="M613.54,82.92a9.88,9.88,0,0,1-.9-3,10.83,10.83,0,0,1-8.46,3.63A11.91,11.91,0,0,1,596,80.69a9.17,9.17,0,0,1-3.24-7.19,9.47,9.47,0,0,1,4-8.18q3.94-2.86,11.42-2.89h4.12V60.51a5.57,5.57,0,0,0-1.19-3.72,4.71,4.71,0,0,0-3.77-1.39,5.36,5.36,0,0,0-3.55,1.08,3.72,3.72,0,0,0-1.29,3h-9a9,9,0,0,1,1.79-5.4,12,12,0,0,1,5.09-3.89,18.86,18.86,0,0,1,7.38-1.41q6.19,0,9.84,3.12t3.64,8.75V75.17a16,16,0,0,0,1.33,7.22v.53Zm-7.41-6.23a7.75,7.75,0,0,0,3.66-.88,5.85,5.85,0,0,0,2.48-2.37V67.67h-3.35q-6.72,0-7.16,4.65l0,.52a3.57,3.57,0,0,0,1.18,2.76A4.52,4.52,0,0,0,606.13,76.69Z"/><path id="Trazado_5789" data-name="Trazado 5789" class="cls-1" d="M637.59,82.92h-9V35.31h9Z"/></g></g><text class="cls-2" transform="translate(107.52 29.94)">Comp<tspan class="cls-3" x="93.05" y="0">r</tspan><tspan x="104.21" y="0">as Gobierno Cent</tspan><tspan class="cls-4" x="372.29" y="0">r</tspan><tspan class="cls-5" x="383.45" y="0">al</tspan></text><circle class="cls-1" cx="71.33" cy="13.65" r="10"/><path class="cls-1" d="M56.52,13.65a11.57,11.57,0,0,1,5.64-10H9.66A9.84,9.84,0,0,0,0,13.65a9.84,9.84,0,0,0,9.66,10h52.5A11.57,11.57,0,0,1,56.52,13.65Z"/><circle class="cls-1" cx="89.33" cy="43.65" r="10"/><path class="cls-1" d="M74.71,43.65a11.65,11.65,0,0,1,5.45-10H29.35c-5.16,0-9.35,4.48-9.35,10s4.19,10,9.35,10H80.16A11.65,11.65,0,0,1,74.71,43.65Z"/><circle class="cls-1" cx="71.33" cy="73.65" r="10"/><path class="cls-1" d="M56.52,73.65a11.57,11.57,0,0,1,5.64-10H9.66a10,10,0,0,0,0,20h52.5A11.57,11.57,0,0,1,56.52,73.65Z"/></g></g></svg>