<svg xmlns="http://www.w3.org/2000/svg" viewBox="0 0 2256.71 349.22"><defs><style>.cls-1{fill:#fff;}</style></defs><title>logo</title><g id="Capa_2" data-name="Capa 2"><g id="Capa_1-2" data-name="Capa 1"><rect class="cls-1" x="426.48" y="2.1" width="6.27" height="347.12"/><polygon class="cls-1" points="307.06 332.9 234.83 141.18 213.12 147.14 286.07 340.81 307.06 332.9"/><path class="cls-1" d="M307.06,332.9c1.56,4.16-1.86,9.3-7.66,11.48s-11.76.59-13.33-3.57,1.86-9.29,7.66-11.47S305.49,328.75,307.06,332.9Z"/><polygon class="cls-1" points="192.65 152.76 125.84 333.59 146.93 341.22 219.26 145.46 192.65 152.76"/><path class="cls-1" d="M146.93,341.22c-1.52,4.18-7.46,5.86-13.29,3.75s-9.31-7.2-7.8-11.38,7.45-5.85,13.27-3.75S148.41,337,146.93,341.22Z"/><polygon class="cls-1" points="204.58 149.25 204.58 342.88 227 342.88 227 143.33 204.58 149.25"/><path class="cls-1" d="M227,341.22c0,4.44-5,8-11.21,8s-11.21-3.6-11.21-8,5-8,11.21-8S227,336.78,227,341.22Z"/><path class="cls-1" d="M55.67,104.87l-37.06,9.39,12.56,49.56,37.05-9.38A47.8,47.8,0,0,1,55.67,104.87Z"/><path class="cls-1" d="M49,133c3.47,13.69-4.51,27.52-17.81,30.88s-26.9-5-30.37-18.68,4.51-27.52,17.81-30.88S45.51,119.26,49,133Z"/><path class="cls-1" d="M142.13,108.16a48.41,48.41,0,0,1,13-46.28L96.45,76.7l20.46,80.79,58.7-14.87A48.43,48.43,0,0,1,142.13,108.16Z"/><path class="cls-1" d="M142.13,108.16c5.65,22.31-7.06,44.77-28.39,50.17s-43.2-8.3-48.85-30.61S72,83,93.28,77.55,136.49,85.81,142.13,108.16Z"/><path class="cls-1" d="M340.82,1.11c-23.51,6-36.66,34.13-29.37,62.92s32.26,47.31,55.77,41.36,36.66-34.13,29.41-62.92S364.33-4.84,340.82,1.11Zm22.62,89.33c-14.71,3.72-30.81-9.91-36.05-30.44s2.51-40.22,17.24-43.94,30.82,9.94,36,30.44S378.14,86.71,363.44,90.44Z"/><path class="cls-1" d="M252.88,102.26l-10.66-42.1a48.91,48.91,0,0,0-23.07-14.74L170.33,57.77a48.2,48.2,0,0,0,20.46,80.79l48.8-12.36A48.86,48.86,0,0,0,252.88,102.26Z"/><path class="cls-1" d="M297.9,68.46c-5.73-22.64-.33-44.89,12.37-58.61L233.33,29.34l26.4,104.27,76.94-19.51C319,108.1,303.64,91.1,297.9,68.46Z"/><path class="cls-1" d="M204,92.25c7.29,28.8,32.26,47.31,55.77,41.36s36.66-34.12,29.37-62.92-32.26-47.31-55.76-41.35S196.66,63.46,204,92.25Z"/><rect class="cls-1" x="202.35" y="45.33" width="44.84" height="83.33" transform="translate(-14.48 57.84) rotate(-14.21)"/><path class="cls-1" d="M243.8,82.16a42,42,0,1,1-51.26-30l.26-.07a41.85,41.85,0,0,1,51,30.05Z"/><path class="cls-1" d="M560,110.35q0,16.55-5.85,29a44,44,0,0,1-16.74,19.23,49.4,49.4,0,0,1-49.82.08,44.44,44.44,0,0,1-16.93-19.12q-6-12.42-6.08-28.59v-5.54q0-16.55,6-29.12A44.36,44.36,0,0,1,487.39,57a49.39,49.39,0,0,1,49.78,0A44.36,44.36,0,0,1,554,76.3q6,12.58,6,29.05Zm-23.39-5.08q0-17.62-6.31-26.78t-18-9.16q-11.62,0-17.93,9T488,104.88v5.47q0,17.16,6.31,26.62t18.16,9.47q11.63,0,17.86-9.12t6.31-26.59Z"/><path class="cls-1" d="M650.33,123q0,20-8.55,31.2t-23.85,11.2q-13.54,0-21.62-10.39l-1,8.85h-20V45.63h22.24V88q7.69-9,20.24-9,15.22,0,23.89,11.2t8.66,31.51Zm-22.24-1.62q0-12.61-4-18.43t-11.93-5.81q-10.62,0-14.62,8.7v32.85q4.08,8.78,14.77,8.78t14.16-10.62Q628.09,131.74,628.09,121.35Z"/><path class="cls-1" d="M709.11,140.82c0-2.72-1.34-4.86-4-6.43s-7-3-13-4.19Q662.41,124,662.41,105q0-11.08,9.19-18.51t24-7.42q15.86,0,25.35,7.46a23.52,23.52,0,0,1,9.51,19.39H708.27A10.74,10.74,0,0,0,705.19,98q-3.08-3.12-9.62-3.12-5.61,0-8.69,2.54a8,8,0,0,0-3.08,6.46,6.85,6.85,0,0,0,3.5,6q3.5,2.27,11.81,3.92a98.33,98.33,0,0,1,14,3.73q17.61,6.47,17.62,22.4,0,11.39-9.78,18.42t-25.23,7.05a44,44,0,0,1-18.59-3.74,31.16,31.16,0,0,1-12.73-10.23,23.79,23.79,0,0,1-4.62-14h21.08a11.63,11.63,0,0,0,4.39,9.08q4.08,3.15,10.93,3.15,6.38,0,9.65-2.42A7.55,7.55,0,0,0,709.11,140.82Z"/><path class="cls-1" d="M783.37,165.37q-18.32,0-29.82-11.24t-11.5-29.93V122a50.21,50.21,0,0,1,4.85-22.43,35.55,35.55,0,0,1,13.73-15.23A38.54,38.54,0,0,1,780.91,79Q798,79,807.8,89.8t9.81,30.55v9.08h-53a20.58,20.58,0,0,0,6.5,13.08q5.42,4.94,13.73,4.93,12.85,0,20.09-9.31l10.92,12.23a33.35,33.35,0,0,1-13.54,11A44.44,44.44,0,0,1,783.37,165.37ZM780.83,97a13.88,13.88,0,0,0-10.73,4.48q-4.12,4.49-5.27,12.83h30.93v-1.78q-.15-7.41-4-11.47T780.83,97Z"/><path class="cls-1" d="M877,101.42a60.51,60.51,0,0,0-8-.61q-12.62,0-16.54,8.54v54.48H830.23V80.57h21l.61,9.92Q858.56,79,870.4,79a23.16,23.16,0,0,1,6.92,1Z"/><path class="cls-1" d="M920.26,136.66l15.47-56.09H959l-28.09,83.26H909.64L881.56,80.57H904.8Z"/><path class="cls-1" d="M1015.83,163.83a24.81,24.81,0,0,1-2.23-7.47q-8.08,9-21,9-12.23,0-20.27-7.08a22.77,22.77,0,0,1-8-17.86q0-13.23,9.81-20.31t28.35-7.16h10.24v-4.77q0-5.76-3-9.23t-9.35-3.46c-3.75,0-6.69.89-8.81,2.69a9.16,9.16,0,0,0-3.2,7.39H966.12a22.31,22.31,0,0,1,4.47-13.39,29.46,29.46,0,0,1,12.62-9.66,46,46,0,0,1,18.31-3.5q15.39,0,24.43,7.73t9,21.74v36.09q.08,11.85,3.31,17.93v1.31Zm-18.39-15.47a19.18,19.18,0,0,0,9.08-2.19,14.46,14.46,0,0,0,6.16-5.89V126h-8.31q-16.71,0-17.78,11.54l-.07,1.31a8.91,8.91,0,0,0,2.92,6.85A11.39,11.39,0,0,0,997.44,148.36Z"/><path class="cls-1" d="M1078.7,60.1V80.57h14.24V96.88H1078.7v41.55q0,4.62,1.77,6.62c1.18,1.34,3.44,2,6.77,2a35.4,35.4,0,0,0,6.54-.54v16.85a45.58,45.58,0,0,1-13.46,2q-23.4,0-23.86-23.63V96.88H1044.3V80.57h12.16V60.1Z"/><path class="cls-1" d="M1099.55,121.43a49.43,49.43,0,0,1,4.77-22.09,34.92,34.92,0,0,1,13.74-15A40,40,0,0,1,1138.87,79q16.86,0,27.51,10.31t11.89,28l.16,5.69q0,19.17-10.7,30.74T1139,165.37q-18,0-28.74-11.55t-10.74-31.39Zm22.24,1.58q0,11.86,4.46,18.15t12.78,6.28a14.76,14.76,0,0,0,12.62-6.21q4.53-6.19,4.54-19.84,0-11.64-4.54-18A14.78,14.78,0,0,0,1138.87,97a14.52,14.52,0,0,0-12.62,6.36Q1121.8,109.68,1121.79,123Z"/><path class="cls-1" d="M1238.91,101.42a60.51,60.51,0,0,0-8-.61q-12.62,0-16.54,8.54v54.48h-22.24V80.57h21l.62,9.92Q1220.44,79,1232.29,79a23.27,23.27,0,0,1,6.93,1Z"/><path class="cls-1" d="M1249.45,59a10.91,10.91,0,0,1,3.35-8.23q3.35-3.24,9.12-3.23t9.07,3.23a10.87,10.87,0,0,1,3.39,8.23,10.91,10.91,0,0,1-3.42,8.31,14.28,14.28,0,0,1-18.09,0A10.91,10.91,0,0,1,1249.45,59Zm23.62,104.81h-22.31V80.57h22.31Z"/><path class="cls-1" d="M1287.92,121.43a49.43,49.43,0,0,1,4.77-22.09,34.92,34.92,0,0,1,13.74-15A40.06,40.06,0,0,1,1327.24,79q16.86,0,27.51,10.31t11.89,28l.16,5.69q0,19.17-10.7,30.74t-28.7,11.59q-18,0-28.74-11.55t-10.74-31.39Zm22.24,1.58q0,11.86,4.47,18.15t12.77,6.28a14.76,14.76,0,0,0,12.62-6.21q4.53-6.19,4.54-19.84,0-11.64-4.54-18A14.78,14.78,0,0,0,1327.24,97a14.5,14.5,0,0,0-12.61,6.36Q1310.16,109.68,1310.16,123Z"/><path class="cls-1" d="M1416.27,121.58q0-19.47,8.74-31T1448.9,79A25.49,25.49,0,0,1,1469,88.11V45.63h22.32v118.2h-20.08l-1.08-8.85a26.18,26.18,0,0,1-21.39,10.39,28.26,28.26,0,0,1-23.59-11.59Q1416.28,142.2,1416.27,121.58Zm22.24,1.66q0,11.72,4.08,18a13.28,13.28,0,0,0,11.85,6.25q10.3,0,14.54-8.71V105.82q-4.15-8.7-14.38-8.71Q1438.51,97.11,1438.51,123.24Z"/><path class="cls-1" d="M1546.86,165.37q-18.31,0-29.82-11.24t-11.51-29.93V122a50.35,50.35,0,0,1,4.85-22.43,35.51,35.51,0,0,1,13.74-15.23A38.48,38.48,0,0,1,1544.39,79q17.08,0,26.9,10.77t9.81,30.55v9.08h-53a20.68,20.68,0,0,0,6.5,13.08,19.65,19.65,0,0,0,13.74,4.93q12.86,0,20.08-9.31l10.93,12.23a33.42,33.42,0,0,1-13.54,11A44.5,44.5,0,0,1,1546.86,165.37ZM1544.32,97a13.9,13.9,0,0,0-10.74,4.48q-4.11,4.49-5.27,12.83h30.94v-1.78q-.16-7.41-4-11.47T1544.32,97Z"/><path class="cls-1" d="M1722.38,126.51Q1721.06,144.59,1709,155t-31.75,10.39q-21.54,0-33.89-14.51T1631,111v-6.85q0-16.15,5.69-28.47A42.67,42.67,0,0,1,1653,56.83q10.58-6.59,24.58-6.58,19.4,0,31.24,10.39t13.7,29.16h-23.08q-.85-10.85-6-15.73t-15.81-4.89q-11.53,0-17.27,8.27t-5.89,25.66v8.47q0,18.17,5.5,26.55t17.35,8.38q10.7,0,16-4.88t6-15.12Z"/><path class="cls-1" d="M1732.61,121.43a49.43,49.43,0,0,1,4.77-22.09,34.92,34.92,0,0,1,13.74-15A40,40,0,0,1,1771.93,79q16.86,0,27.51,10.31t11.89,28l.15,5.69q0,19.17-10.69,30.74t-28.7,11.59q-18,0-28.75-11.55t-10.73-31.39Zm22.24,1.58q0,11.86,4.46,18.15t12.78,6.28a14.73,14.73,0,0,0,12.61-6.21q4.54-6.19,4.54-19.84,0-11.64-4.54-18A14.75,14.75,0,0,0,1771.93,97a14.52,14.52,0,0,0-12.62,6.36Q1754.86,109.68,1754.85,123Z"/><path class="cls-1" d="M1846,80.57l.7,9.31Q1855.56,79,1870.66,79q16.08,0,22.08,12.7,8.77-12.7,25-12.7,13.55,0,20.16,7.89t6.62,23.74v53.17h-22.32v-53.1q0-7.08-2.77-10.35t-9.77-3.27q-10,0-13.85,9.54l.07,57.18h-22.23v-53q0-7.23-2.85-10.47t-9.7-3.23q-9.45,0-13.69,7.85v58.87h-22.24V80.57Z"/><path class="cls-1" d="M2036.56,123q0,19.23-8.74,30.81t-23.58,11.59q-12.62,0-20.39-8.78v39.25h-22.24V80.57h20.62l.77,8.15q8.09-9.69,21.09-9.69,15.39,0,23.93,11.39t8.54,31.39Zm-22.24-1.62q0-11.61-4.12-17.93a13.41,13.41,0,0,0-12-6.31q-10.47,0-14.39,8V139.2q4.08,8.24,14.54,8.24Q2014.32,147.44,2014.32,121.35Z"/><path class="cls-1" d="M2097.12,101.42a60.51,60.51,0,0,0-8-.61q-12.62,0-16.54,8.54v54.48h-22.24V80.57h21l.61,9.92Q2078.66,79,2090.5,79a23.16,23.16,0,0,1,6.92,1Z"/><path class="cls-1" d="M2153.75,163.83a24.53,24.53,0,0,1-2.23-7.47q-8.08,9-21,9-12.23,0-20.27-7.08a22.75,22.75,0,0,1-8-17.86q0-13.23,9.82-20.31t28.35-7.16h10.24v-4.77q0-5.76-3-9.23t-9.35-3.46c-3.74,0-6.68.89-8.81,2.69a9.15,9.15,0,0,0-3.19,7.39H2104a22.37,22.37,0,0,1,4.46-13.39,29.58,29.58,0,0,1,12.62-9.66,46.11,46.11,0,0,1,18.32-3.5q15.39,0,24.43,7.73t9,21.74v36.09q.08,11.85,3.31,17.93v1.31Zm-18.39-15.47a19.18,19.18,0,0,0,9.08-2.19,14.46,14.46,0,0,0,6.16-5.89V126h-8.31q-16.71,0-17.78,11.54l-.08,1.31a8.92,8.92,0,0,0,2.93,6.85A11.37,11.37,0,0,0,2135.36,148.36Z"/><path class="cls-1" d="M2235.09,140.82q0-4.08-4-6.43t-13-4.19q-29.7-6.24-29.7-25.24,0-11.08,9.19-18.51t24-7.42q15.86,0,25.35,7.46a23.52,23.52,0,0,1,9.51,19.39h-22.24a10.74,10.74,0,0,0-3.08-7.88q-3.07-3.12-9.62-3.12-5.61,0-8.69,2.54a8,8,0,0,0-3.08,6.46,6.87,6.87,0,0,0,3.5,6q3.49,2.27,11.81,3.92a98.33,98.33,0,0,1,14,3.73q17.61,6.47,17.62,22.4,0,11.39-9.77,18.42t-25.24,7.05a44,44,0,0,1-18.59-3.74,31.16,31.16,0,0,1-12.73-10.23,23.79,23.79,0,0,1-4.62-14h21.09a11.6,11.6,0,0,0,4.38,9.08q4.08,3.15,10.93,3.15c4.26,0,7.47-.81,9.66-2.42A7.55,7.55,0,0,0,2235.09,140.82Z"/><path class="cls-1" d="M519.34,262.45q-1.25,11.43-8.18,17.5T492.7,286a25.49,25.49,0,0,1-14.24-4,26.3,26.3,0,0,1-9.57-11.4,40.61,40.61,0,0,1-3.42-16.87v-9.4a40.89,40.89,0,0,1,3.38-17.09,26,26,0,0,1,9.71-11.51,26.52,26.52,0,0,1,14.59-4.05q11.63,0,18.36,6.26t7.83,17.35h-6.16q-2.29-18.44-20-18.44a19,19,0,0,0-15.68,7.36q-5.85,7.37-5.84,20.34v8.86q0,12.53,5.69,20a18.33,18.33,0,0,0,15.38,7.46q9.58,0,14.46-4.6t6-13.79Z"/><path class="cls-1" d="M566.75,285a27.77,27.77,0,0,1-1.14-7.51,20.8,20.8,0,0,1-8,6.29A24.49,24.49,0,0,1,547.37,286q-7.75,0-12.55-4.32a14.1,14.1,0,0,1-4.8-10.94,14.39,14.39,0,0,1,6.54-12.42q6.53-4.57,18.21-4.57h10.79v-6.12a11.79,11.79,0,0,0-3.56-9.07q-3.56-3.3-10.36-3.3a16.24,16.24,0,0,0-10.29,3.18,9.46,9.46,0,0,0-4.07,7.65l-6,0q0-6.41,6-11.1a22.92,22.92,0,0,1,14.66-4.7q9,0,14.19,4.5t5.34,12.55v25.44q0,7.8,1.64,11.68v.6Zm-18.69-4.28a20,20,0,0,0,10.66-2.88,17,17,0,0,0,6.84-7.7V258.33H554.92q-8.89.1-13.91,3.25a9.78,9.78,0,0,0-5,8.68,9.63,9.63,0,0,0,3.35,7.5A12.64,12.64,0,0,0,548.06,280.74Z"/><path class="cls-1" d="M630.56,258.68q0,12.57-5.56,19.95A17.73,17.73,0,0,1,610.09,286q-11,0-16.9-7.75v27.43h-5.91V231.24h5.51l.3,7.61q5.82-8.59,16.85-8.6,9.64,0,15.13,7.3t5.49,20.28Zm-6-1.05q0-10.29-4.23-16.25a13.62,13.62,0,0,0-11.77-6,15.67,15.67,0,0,0-15.41,10.29V271.5a15.81,15.81,0,0,0,6.11,7.06,17.66,17.66,0,0,0,9.4,2.43,13.48,13.48,0,0,0,11.7-6Q624.6,269,624.6,257.63Z"/><path class="cls-1" d="M653.37,209.28h7.21L649.1,223.19l-5.22,0ZM650.29,285h-6V231.24h6Z"/><path class="cls-1" d="M675.64,217.48v13.76h11.13v4.87H675.64V272q0,4.47,1.61,6.66t5.4,2.19a35.69,35.69,0,0,0,4.82-.5l.24,4.83a19.31,19.31,0,0,1-6.36.84q-6.11,0-8.89-3.55T669.67,272V236.11h-9.89v-4.87h9.89V217.48Z"/><path class="cls-1" d="M733.69,278.21q-5.37,7.8-17.15,7.8-8.6,0-13.07-5t-4.57-14.79v-35h5.91v34.24q0,15.36,12.43,15.36,12.91,0,16.35-10.68V231.24h6V285h-5.77Z"/><path class="cls-1" d="M761.67,285h-6V208.68h6Z"/><path class="cls-1" d="M774.54,257.33a31.7,31.7,0,0,1,3-14,22.57,22.57,0,0,1,21-13.12q10.74,0,17.4,7.53t6.66,20V259a31.93,31.93,0,0,1-3,14,22.49,22.49,0,0,1-8.47,9.62A23.3,23.3,0,0,1,798.59,286q-10.68,0-17.37-7.53t-6.68-20Zm6,1.64q0,9.64,5,15.83a16.89,16.89,0,0,0,26.14,0q5-6.18,5-16.32v-1.15a27.46,27.46,0,0,0-2.28-11.28,18.41,18.41,0,0,0-6.42-7.92,16.3,16.3,0,0,0-9.44-2.81,15.89,15.89,0,0,0-13,6.24q-5,6.23-5,16.32Z"/><path class="cls-1" d="M913.19,276.42q-3.18,4.51-10,7.06A43.08,43.08,0,0,1,888.05,286a28.26,28.26,0,0,1-15.11-4.07A27.16,27.16,0,0,1,862.7,270.4,39.08,39.08,0,0,1,859,253.31v-9.15q0-15,7.61-23.78t20.42-8.72q11.19,0,18,5.69t8.1,15.68H907q-1.34-8-6.48-12.09t-13.45-4.11q-10.14,0-16.05,7.21t-5.91,20.34v8.56a35.81,35.81,0,0,0,2.8,14.6,22.34,22.34,0,0,0,8.06,9.82,21.27,21.27,0,0,0,12,3.48,33.72,33.72,0,0,0,13.56-2.48,14.59,14.59,0,0,0,5.47-3.83V255.84H887.65v-5.17h25.54Z"/><path class="cls-1" d="M925.87,257.33a31.7,31.7,0,0,1,3-14,22.57,22.57,0,0,1,21-13.12q10.74,0,17.4,7.53t6.66,20V259a31.93,31.93,0,0,1-3,14,22.49,22.49,0,0,1-8.47,9.62A23.3,23.3,0,0,1,949.92,286q-10.68,0-17.37-7.53t-6.68-20Zm6,1.64q0,9.64,5,15.83a16.89,16.89,0,0,0,26.14,0q5-6.18,5-16.32v-1.15a27.46,27.46,0,0,0-2.28-11.28,18.41,18.41,0,0,0-6.42-7.92,16.3,16.3,0,0,0-9.44-2.81,15.89,15.89,0,0,0-13,6.24q-5,6.23-5,16.32Z"/><path class="cls-1" d="M1029.44,258.68q0,12.57-5.57,19.95a17.78,17.78,0,0,1-15,7.38q-11.24,0-17-8.35l-.25,7.36H986.1V208.68H992v30.37q5.65-8.81,16.79-8.8a18,18,0,0,1,15.09,7.28q5.53,7.28,5.54,20.25Zm-6-1.05q0-10.63-4.12-16.42a13.45,13.45,0,0,0-11.63-5.79,16.31,16.31,0,0,0-9.69,2.81,17,17,0,0,0-6,8.22V270.7q4.47,10.14,15.8,10.14a13.35,13.35,0,0,0,11.5-5.81Q1023.48,269.21,1023.47,257.63Z"/><path class="cls-1" d="M1042.21,215.71a4,4,0,0,1,1.09-2.84,3.92,3.92,0,0,1,3-1.16,4,4,0,0,1,3,1.16,3.93,3.93,0,0,1,1.12,2.84,3.85,3.85,0,0,1-1.12,2.82,4,4,0,0,1-3,1.13,3.81,3.81,0,0,1-4.07-3.95Zm7,69.31h-6V231.24h6Z"/><path class="cls-1" d="M1086.19,286a23.39,23.39,0,0,1-12.4-3.38,23,23,0,0,1-8.62-9.42,29.39,29.39,0,0,1-3.08-13.54v-2.14a31.54,31.54,0,0,1,3-14,23.9,23.9,0,0,1,8.37-9.77,20.64,20.64,0,0,1,11.63-3.55q9.8,0,15.53,6.68t5.74,18.27v3.33H1068v1.14q0,9.15,5.25,15.23a16.66,16.66,0,0,0,13.19,6.09,19.42,19.42,0,0,0,8.43-1.74,18.73,18.73,0,0,0,6.63-5.56l3.73,2.83Q1098.66,286,1086.19,286Zm-1.09-50.69a14.89,14.89,0,0,0-11.31,4.92q-4.59,4.92-5.59,13.22h32.26v-.65q-.26-7.76-4.43-12.62A13.69,13.69,0,0,0,1085.1,235.32Z"/><path class="cls-1" d="M1142.8,236.31a22.4,22.4,0,0,0-4-.35,14.54,14.54,0,0,0-9.42,3.11,17.11,17.11,0,0,0-5.49,9V285H1118V231.24h5.81l.1,8.55q4.73-9.54,15.16-9.54a9.62,9.62,0,0,1,3.93.65Z"/><path class="cls-1" d="M1157.86,231.24l.2,9.2a21.25,21.25,0,0,1,7.55-7.58,19.6,19.6,0,0,1,10-2.61q8.64,0,12.87,4.87t4.27,14.61V285h-5.91V249.68q0-7.2-3.06-10.73t-9.61-3.53a15.06,15.06,0,0,0-9.77,3.45,20.26,20.26,0,0,0-6.29,9.32V285h-5.91V231.24Z"/><path class="cls-1" d="M1204.82,257.33a31.57,31.57,0,0,1,3-14,22.57,22.57,0,0,1,20.94-13.12q10.74,0,17.4,7.53t6.66,20V259a31.8,31.8,0,0,1-3,14,22.42,22.42,0,0,1-8.47,9.62,23.27,23.27,0,0,1-12.48,3.38q-10.68,0-17.36-7.53t-6.69-20Zm6,1.64q0,9.64,5,15.83a16.89,16.89,0,0,0,26.14,0q5-6.18,5-16.32v-1.15a27.47,27.47,0,0,0-2.29-11.28,18.39,18.39,0,0,0-6.41-7.92,16.34,16.34,0,0,0-9.45-2.81,15.89,15.89,0,0,0-13,6.24q-5,6.23-5,16.32Z"/><path class="cls-1" d="M1342.48,262.45q-1.23,11.43-8.17,17.5T1315.85,286a25.46,25.46,0,0,1-14.24-4,26.16,26.16,0,0,1-9.57-11.4,40.61,40.61,0,0,1-3.43-16.87v-9.4a41,41,0,0,1,3.38-17.09,26,26,0,0,1,9.72-11.51,26.46,26.46,0,0,1,14.58-4.05q11.64,0,18.37,6.26t7.82,17.35h-6.16q-2.28-18.44-20-18.44a19,19,0,0,0-15.68,7.36q-5.83,7.37-5.84,20.34v8.86q0,12.53,5.69,20a18.36,18.36,0,0,0,15.39,7.46q9.59,0,14.46-4.6t6-13.79Z"/><path class="cls-1" d="M1376.78,286a23.34,23.34,0,0,1-12.4-3.38,23,23,0,0,1-8.63-9.42,29.39,29.39,0,0,1-3.08-13.54v-2.14a31.54,31.54,0,0,1,3-14,24,24,0,0,1,8.37-9.77,20.66,20.66,0,0,1,11.63-3.55q9.79,0,15.53,6.68T1397,255.2v3.33h-38.36v1.14q0,9.15,5.24,15.23A16.66,16.66,0,0,0,1377,281a19.39,19.39,0,0,0,8.43-1.74,18.64,18.64,0,0,0,6.63-5.56l3.73,2.83Q1389.26,286,1376.78,286Zm-1.1-50.69a14.85,14.85,0,0,0-11.3,4.92q-4.61,4.92-5.59,13.22H1391v-.65q-.26-7.76-4.42-12.62A13.71,13.71,0,0,0,1375.68,235.32Z"/><path class="cls-1" d="M1414.2,231.24l.2,9.2a21.33,21.33,0,0,1,7.55-7.58,19.65,19.65,0,0,1,10-2.61q8.65,0,12.87,4.87t4.28,14.61V285h-5.92V249.68q0-7.2-3.05-10.73t-9.62-3.53a15.07,15.07,0,0,0-9.77,3.45,20.25,20.25,0,0,0-6.28,9.32V285h-5.92V231.24Z"/><path class="cls-1" d="M1473.69,217.48v13.76h11.13v4.87h-11.13V272q0,4.47,1.61,6.66t5.39,2.19a35.79,35.79,0,0,0,4.83-.5l.24,4.83a19.31,19.31,0,0,1-6.36.84q-6.11,0-8.89-3.55T1467.72,272V236.11h-9.89v-4.87h9.89V217.48Z"/><path class="cls-1" d="M1522,236.31a22.37,22.37,0,0,0-4-.35,14.54,14.54,0,0,0-9.42,3.11,17,17,0,0,0-5.49,9V285h-5.92V231.24H1503l.1,8.55q4.73-9.54,15.16-9.54a9.6,9.6,0,0,1,3.92.65Z"/><path class="cls-1" d="M1563.34,285a28.18,28.18,0,0,1-1.14-7.51,20.8,20.8,0,0,1-8,6.29A24.49,24.49,0,0,1,1544,286q-7.76,0-12.55-4.32a14.1,14.1,0,0,1-4.8-10.94,14.39,14.39,0,0,1,6.54-12.42q6.54-4.57,18.21-4.57h10.79v-6.12a11.82,11.82,0,0,0-3.55-9.07q-3.55-3.3-10.37-3.3a16.19,16.19,0,0,0-10.28,3.18,9.44,9.44,0,0,0-4.08,7.65l-6,0q0-6.41,6-11.1a22.92,22.92,0,0,1,14.66-4.7q9,0,14.19,4.5t5.34,12.55v25.44q0,7.8,1.64,11.68v.6Zm-18.69-4.28a20,20,0,0,0,10.66-2.88,17,17,0,0,0,6.84-7.7V258.33h-10.64q-8.9.1-13.91,3.25a9.78,9.78,0,0,0-5,8.68,9.63,9.63,0,0,0,3.35,7.5A12.64,12.64,0,0,0,1544.65,280.74Z"/><path class="cls-1" d="M1590.58,285h-6V208.68h6Z"/></g></g></svg>