<svg xmlns="http://www.w3.org/2000/svg" xmlns:xlink="http://www.w3.org/1999/xlink" viewBox="0 0 1916.14 347.16"><defs><style>.cls-1{fill:#1c1f2a;}.cls-2{fill:#00b3e3;}.cls-3{mask:url(#mask);}</style><mask id="mask" x="145.75" y="-3748.42" width="97.01" height="32766" maskUnits="userSpaceOnUse"/></defs><title>Recurso 10</title><g id="Capa_2" data-name="Capa 2"><g id="Layer_1" data-name="Layer 1"><path class="cls-1" d="M569.12,144q0,18.27-6.46,32a48.6,48.6,0,0,1-18.48,21.25,54.64,54.64,0,0,1-55,.08,49.12,49.12,0,0,1-18.69-21.11q-6.63-13.72-6.72-31.57v-6.12q0-18.27,6.59-32.16A49,49,0,0,1,489,85a54.51,54.51,0,0,1,55,0,49,49,0,0,1,18.61,21.33q6.59,13.89,6.58,32.07Zm-25.83-5.61q0-19.46-7-29.57T516.44,98.68q-12.84,0-19.8,10t-7.05,29.27v6q0,18.94,7,29.4t20.06,10.45q12.82,0,19.71-10.07t7-29.36Z"/><path class="cls-1" d="M668.88,157.9q0,22.1-9.43,34.46t-26.34,12.36q-15,0-23.88-11.47l-1.1,9.77H586V72.5h24.56v46.82q8.49-9.93,22.35-9.94,16.81,0,26.38,12.37t9.56,34.79Zm-24.56-1.78q0-13.94-4.41-20.35t-13.17-6.42q-11.73,0-16.15,9.6v36.29q4.5,9.69,16.31,9.68t15.64-11.72Q644.33,167.59,644.32,156.12Z"/><path class="cls-1" d="M733.8,177.62c0-3-1.48-5.37-4.46-7.1s-7.75-3.27-14.32-4.63Q682.23,159,682.22,138q0-12.24,10.16-20.44t26.55-8.2q17.51,0,28,8.24A26,26,0,0,1,757.43,139H732.87a11.9,11.9,0,0,0-3.4-8.71q-3.4-3.45-10.62-3.44-6.21,0-9.61,2.8a8.86,8.86,0,0,0-3.39,7.14,7.54,7.54,0,0,0,3.86,6.58q3.87,2.52,13,4.34a106.88,106.88,0,0,1,15.46,4.12q19.46,7.14,19.46,24.73,0,12.57-10.79,20.35T719,204.72a48.54,48.54,0,0,1-20.52-4.12,34.35,34.35,0,0,1-14.07-11.3,26.25,26.25,0,0,1-5.1-15.51h23.29q.33,6.56,4.84,10t12.07,3.48q7.05,0,10.66-2.67A8.33,8.33,0,0,0,733.8,177.62Z"/><path class="cls-1" d="M815.8,204.72q-20.22,0-32.92-12.4t-12.71-33.06v-2.38a55.54,55.54,0,0,1,5.36-24.77,39.23,39.23,0,0,1,15.16-16.82,42.57,42.57,0,0,1,22.39-5.91q18.87,0,29.7,11.9T853.62,155v10H795.07a22.83,22.83,0,0,0,7.18,14.45q6,5.43,15.17,5.43,14.19,0,22.18-10.28l12.06,13.51a36.79,36.79,0,0,1-14.95,12.2A49.05,49.05,0,0,1,815.8,204.72ZM813,129.18a15.34,15.34,0,0,0-11.85,4.95q-4.56,5-5.83,14.17h34.16v-2q-.16-8.19-4.41-12.68T813,129.18Z"/><path class="cls-1" d="M919.22,134.11a67.39,67.39,0,0,0-8.84-.68q-13.93,0-18.27,9.43V203H867.55V111.08h23.2l.68,11q7.4-12.66,20.48-12.66a25.63,25.63,0,0,1,7.65,1.11Z"/><path class="cls-1" d="M967,173l17.08-61.95h25.67L978.7,203H955.25l-31-91.94h25.66Z"/><path class="cls-1" d="M1072.51,203a27.31,27.31,0,0,1-2.46-8.24q-8.92,9.94-23.2,9.94-13.51,0-22.39-7.81a25.15,25.15,0,0,1-8.88-19.72q0-14.61,10.83-22.43t31.32-7.9H1069v-5.27q0-6.37-3.27-10.2t-10.33-3.82q-6.2,0-9.73,3a10.1,10.1,0,0,0-3.52,8.16h-24.56a24.66,24.66,0,0,1,4.93-14.79,32.58,32.58,0,0,1,13.93-10.66,50.79,50.79,0,0,1,20.23-3.87q17,0,27,8.54t10,24v39.85q.09,13.1,3.65,19.8V203Zm-20.31-17.08a21.09,21.09,0,0,0,10-2.42,15.91,15.91,0,0,0,6.8-6.5v-15.8h-9.18q-18.43,0-19.63,12.74l-.08,1.45a9.82,9.82,0,0,0,3.22,7.56C1045.52,185,1048.46,185.94,1052.2,185.94Z"/><path class="cls-1" d="M1141.94,88.48v22.6h15.72v18h-15.72V175q0,5.1,2,7.31t7.48,2.21a39.76,39.76,0,0,0,7.22-.59v18.61a50.61,50.61,0,0,1-14.87,2.2q-25.83,0-26.34-26.08V129.1H1104v-18h13.43V88.48Z"/><path class="cls-1" d="M1165,156.2a54.5,54.5,0,0,1,5.27-24.38,38.5,38.5,0,0,1,15.17-16.57,44.25,44.25,0,0,1,23-5.87q18.6,0,30.37,11.39t13.13,30.93l.17,6.29q0,21.15-11.81,33.95t-31.7,12.78q-19.87,0-31.73-12.74T1165,157.31Zm24.56,1.75q0,13.1,4.93,20t14.1,6.93q8.92,0,13.94-6.85t5-21.91q0-12.85-5-19.92t-14.1-7.06q-9,0-13.94,7T1189.52,158Z"/><path class="cls-1" d="M1318.85,134.11a67.25,67.25,0,0,0-8.83-.68q-13.95,0-18.27,9.43V203h-24.56V111.08h23.2l.68,11q7.38-12.66,20.47-12.66a25.63,25.63,0,0,1,7.65,1.11Z"/><path class="cls-1" d="M1330.49,87.29a12.11,12.11,0,0,1,3.7-9.09q3.7-3.57,10.07-3.57t10,3.57a13,13,0,0,1,0,18.27,15.73,15.73,0,0,1-20,0A12.07,12.07,0,0,1,1330.49,87.29ZM1356.58,203h-24.64V111.08h24.64Z"/><path class="cls-1" d="M1373,156.2a54.5,54.5,0,0,1,5.27-24.38,38.5,38.5,0,0,1,15.17-16.57,44.23,44.23,0,0,1,23-5.87q18.61,0,30.38,11.39t13.13,30.93l.17,6.29q0,21.15-11.81,33.95t-31.7,12.78q-19.87,0-31.73-12.74T1373,157.31Zm24.56,1.75q0,13.1,4.93,20t14.1,6.93q8.92,0,13.94-6.85t5-21.91q0-12.85-5-19.92t-14.11-7.06q-9,0-13.93,7T1397.54,158Z"/><path class="cls-1" d="M1551.26,152.46h-49V203h-25.49V79.3h80.56V100h-55.07v32h49Z"/><path class="cls-1" d="M1570.38,87.29a12.1,12.1,0,0,1,3.69-9.09q3.71-3.57,10.07-3.57t10,3.57a13,13,0,0,1,0,18.27,15.75,15.75,0,0,1-20,0A12.06,12.06,0,0,1,1570.38,87.29ZM1596.46,203h-24.64V111.08h24.64Z"/><path class="cls-1" d="M1666.48,177.62c0-3-1.48-5.37-4.46-7.1s-7.74-3.27-14.32-4.63Q1614.91,159,1614.9,138q0-12.24,10.16-20.44t26.55-8.2q17.51,0,28,8.24a26,26,0,0,1,10.5,21.42h-24.56a11.86,11.86,0,0,0-3.4-8.71q-3.4-3.45-10.62-3.44-6.21,0-9.6,2.8a8.85,8.85,0,0,0-3.4,7.14,7.57,7.57,0,0,0,3.86,6.58q3.87,2.52,13,4.34a106.53,106.53,0,0,1,15.46,4.12q19.45,7.14,19.46,24.73,0,12.57-10.79,20.35t-27.87,7.77a48.54,48.54,0,0,1-20.52-4.12,34.35,34.35,0,0,1-14.07-11.3,26.24,26.24,0,0,1-5.09-15.51h23.28q.33,6.56,4.84,10t12.07,3.48q7.05,0,10.66-2.67A8.33,8.33,0,0,0,1666.48,177.62Z"/><path class="cls-1" d="M1744.41,184.92q6.79,0,11-3.73a13.12,13.12,0,0,0,4.42-9.95h23a31.57,31.57,0,0,1-5.1,17.13,33.66,33.66,0,0,1-13.72,12.06,43,43,0,0,1-19.25,4.29q-19.71,0-31.1-12.53t-11.39-34.63V156q0-21.24,11.3-33.91t31-12.66q17.25,0,27.66,9.82t10.58,26.13h-23a16.86,16.86,0,0,0-4.42-11.66,14.73,14.73,0,0,0-11.21-4.49q-8.6,0-13,6.26t-4.38,20.29v2.56q0,14.21,4.33,20.42T1744.41,184.92Z"/><path class="cls-1" d="M1850.2,203a27.59,27.59,0,0,1-2.47-8.24q-8.91,9.94-23.19,9.94-13.51,0-22.39-7.81a25.15,25.15,0,0,1-8.88-19.72q0-14.61,10.83-22.43t31.31-7.9h11.31v-5.27q0-6.37-3.28-10.2t-10.32-3.82q-6.21,0-9.73,3a10.1,10.1,0,0,0-3.53,8.16h-24.55a24.72,24.72,0,0,1,4.92-14.79,32.61,32.61,0,0,1,13.94-10.66,50.74,50.74,0,0,1,20.22-3.87q17,0,27,8.54t10,24v39.85q.08,13.1,3.65,19.8V203Zm-20.31-17.08a21.09,21.09,0,0,0,10-2.42,15.91,15.91,0,0,0,6.8-6.5v-15.8h-9.18q-18.45,0-19.63,12.74l-.09,1.45a9.83,9.83,0,0,0,3.23,7.56C1823.21,185,1826.15,185.94,1829.89,185.94Z"/><path class="cls-1" d="M1916.14,203H1891.5V72.5h24.64Z"/><path class="cls-2" d="M491.48,270.63H468.23v23.31H464V244.09H494.9v3.56H468.23v19.42h23.25Z"/><path class="cls-2" d="M525.58,289.25q-3.69,5.38-11.81,5.38-5.92,0-9-3.44T501.61,281V256.9h4.08v23.59q0,10.58,8.56,10.58,8.89,0,11.26-7.36V256.9h4.11v37h-4Z"/><path class="cls-2" d="M544.17,256.9l.14,6.33a14.77,14.77,0,0,1,5.2-5.22,13.52,13.52,0,0,1,6.89-1.8q6,0,8.86,3.36t3,10.06v24.31h-4.08V269.6c0-3.31-.72-5.77-2.1-7.4s-3.59-2.43-6.63-2.43a10.43,10.43,0,0,0-6.73,2.38,14,14,0,0,0-4.33,6.42v25.37h-4.07v-37Z"/><path class="cls-2" d="M577.14,275.08q0-8.62,3.85-13.75a12.42,12.42,0,0,1,10.47-5.12,12.88,12.88,0,0,1,11.43,5.93V241.35H607v52.59h-3.84L603,289q-3.94,5.63-11.57,5.62a12.38,12.38,0,0,1-10.33-5.15q-3.91-5.16-3.92-13.92Zm4.15.72q0,7.08,2.84,11.18a9.2,9.2,0,0,0,8,4.09q7.56,0,10.75-6.68V267q-3.18-7.23-10.68-7.23a9.32,9.32,0,0,0-8.05,4.06Q581.28,267.9,581.29,275.8Z"/><path class="cls-2" d="M641.14,293.94a18.75,18.75,0,0,1-.79-5.17,14.27,14.27,0,0,1-5.5,4.34,16.89,16.89,0,0,1-7.07,1.52,12.38,12.38,0,0,1-8.64-3,9.69,9.69,0,0,1-3.31-7.53,9.9,9.9,0,0,1,4.51-8.56q4.5-3.15,12.54-3.15h7.43V268.2a8.12,8.12,0,0,0-2.44-6.25q-2.46-2.28-7.14-2.28a11.17,11.17,0,0,0-7.09,2.19,6.52,6.52,0,0,0-2.81,5.28l-4.11,0q0-4.41,4.11-7.65a15.82,15.82,0,0,1,10.1-3.24q6.2,0,9.78,3.1a11.15,11.15,0,0,1,3.68,8.65v17.53a21.58,21.58,0,0,0,1.13,8v.41ZM628.26,291a13.73,13.73,0,0,0,7.35-2,11.68,11.68,0,0,0,4.7-5.3v-8.15H633q-6.13.06-9.59,2.24a6.73,6.73,0,0,0-3.46,6,6.64,6.64,0,0,0,2.31,5.17A8.76,8.76,0,0,0,628.26,291Z"/><path class="cls-2" d="M669,291.17a10.81,10.81,0,0,0,7.17-2.41,8.49,8.49,0,0,0,3.13-6.25h3.94a11.65,11.65,0,0,1-2.12,6.18,13.34,13.34,0,0,1-5.19,4.36,15.65,15.65,0,0,1-6.93,1.58,14.3,14.3,0,0,1-11.56-5.07q-4.26-5.07-4.26-13.63V274.7A23.31,23.31,0,0,1,655.1,265a14.74,14.74,0,0,1,5.5-6.5,15.16,15.16,0,0,1,8.37-2.3,14.3,14.3,0,0,1,10,3.63,13.22,13.22,0,0,1,4.23,9.55h-3.94A9.91,9.91,0,0,0,669,259.71a10.2,10.2,0,0,0-8.61,4q-3.06,4-3.06,11.23v1.2q0,7.08,3.06,11.06A10.27,10.27,0,0,0,669,291.17Z"/><path class="cls-2" d="M691.19,246.2a2.72,2.72,0,0,1,.76-2,2.68,2.68,0,0,1,2-.8,2.69,2.69,0,0,1,2.84,2.76,2.67,2.67,0,0,1-.77,1.94,2.77,2.77,0,0,1-2.07.78,2.71,2.71,0,0,1-2-.78A2.66,2.66,0,0,1,691.19,246.2ZM696,293.94h-4.11v-37H696Z"/><path class="cls-2" d="M704.89,274.87a21.83,21.83,0,0,1,2.07-9.62,15.55,15.55,0,0,1,14.43-9,15.22,15.22,0,0,1,12,5.19q4.59,5.19,4.59,13.75V276a22,22,0,0,1-2.07,9.68,15.47,15.47,0,0,1-5.84,6.62,16,16,0,0,1-8.59,2.33,15.25,15.25,0,0,1-12-5.19q-4.61-5.19-4.6-13.75ZM709,276a16.78,16.78,0,0,0,3.44,10.91,11.65,11.65,0,0,0,18,0q3.43-4.26,3.44-11.25v-.79a18.83,18.83,0,0,0-1.58-7.77,12.68,12.68,0,0,0-4.41-5.46,11.31,11.31,0,0,0-6.51-1.93,11,11,0,0,0-8.94,4.29Q709,268.31,709,275.25Zm16.46-34.65h5l-7.91,9.59-3.59,0Z"/><path class="cls-2" d="M750.32,256.9l.14,6.33a14.77,14.77,0,0,1,5.2-5.22,13.52,13.52,0,0,1,6.89-1.8q6,0,8.86,3.36t3,10.06v24.31h-4.08V269.6c0-3.31-.72-5.77-2.1-7.4s-3.59-2.43-6.63-2.43a10.43,10.43,0,0,0-6.73,2.38,14,14,0,0,0-4.33,6.42v25.37h-4.07v-37Z"/><path class="cls-2" d="M839.79,271.72a28.76,28.76,0,0,1-2.38,12.09,18.14,18.14,0,0,1-6.8,8,18.6,18.6,0,0,1-10.2,2.81,17.71,17.71,0,0,1-14.11-6.25q-5.37-6.24-5.37-16.86v-5.14a28.65,28.65,0,0,1,2.41-12.07,19.09,19.09,0,0,1,27.15-8.13,18.19,18.19,0,0,1,6.8,7.84,28.2,28.2,0,0,1,2.5,11.74Zm-4.21-5.41q0-9-4.08-14.1a14.66,14.66,0,0,0-22.24,0q-4.12,5.13-4.12,14.3v5.2q0,8.88,4.11,14.06A13.48,13.48,0,0,0,820.41,291q7.15,0,11.16-5.12t4-14.26Z"/><path class="cls-2" d="M879.27,275.8c0,5.77-1.28,10.36-3.84,13.74a12.25,12.25,0,0,1-10.3,5.09q-7.74,0-11.71-5.75l-.17,5.06h-3.84V241.35h4.08v20.92q3.9-6.06,11.57-6.06a12.38,12.38,0,0,1,10.39,5q3.81,5,3.82,13.95Zm-4.11-.72q0-7.33-2.84-11.32a9.28,9.28,0,0,0-8-4,11.25,11.25,0,0,0-6.67,1.94,11.72,11.72,0,0,0-4.14,5.66v16.71q3.07,7,10.88,7a9.21,9.21,0,0,0,7.93-4Q875.15,283.05,875.16,275.08Z"/><path class="cls-2" d="M902.65,294.63a16.08,16.08,0,0,1-8.54-2.33,15.75,15.75,0,0,1-5.94-6.49,20.15,20.15,0,0,1-2.13-9.33V275a21.8,21.8,0,0,1,2.08-9.62,16.45,16.45,0,0,1,5.77-6.73,14.22,14.22,0,0,1,8-2.45,13.4,13.4,0,0,1,10.7,4.61q3.95,4.6,3.95,12.58v2.29H890.12v.79a15.52,15.52,0,0,0,3.61,10.5,11.51,11.51,0,0,0,9.09,4.19,13.38,13.38,0,0,0,5.81-1.2,12.91,12.91,0,0,0,4.57-3.83l2.56,1.95Q911.25,294.63,902.65,294.63Zm-.75-34.92a10.24,10.24,0,0,0-7.79,3.39,15.58,15.58,0,0,0-3.85,9.1h22.22v-.44a13.63,13.63,0,0,0-3.05-8.7A9.43,9.43,0,0,0,901.9,259.71Z"/><path class="cls-2" d="M941.65,260.39a15.28,15.28,0,0,0-2.77-.24,10,10,0,0,0-6.49,2.14,11.79,11.79,0,0,0-3.79,6.21v25.44h-4.07v-37h4l.06,5.89a10.89,10.89,0,0,1,10.45-6.58,6.65,6.65,0,0,1,2.7.45Z"/><path class="cls-2" d="M960.28,288.29l11.26-31.39h4.21l-13.83,37H958.6l-13.9-37h4.21Z"/><path class="cls-2" d="M1005.33,293.94a19.22,19.22,0,0,1-.78-5.17,14.27,14.27,0,0,1-5.5,4.34,16.89,16.89,0,0,1-7.07,1.52,12.38,12.38,0,0,1-8.64-3,9.69,9.69,0,0,1-3.31-7.53,9.91,9.91,0,0,1,4.5-8.56q4.51-3.15,12.55-3.15h7.43V268.2a8.09,8.09,0,0,0-2.45-6.25q-2.44-2.28-7.13-2.28a11.17,11.17,0,0,0-7.09,2.19,6.52,6.52,0,0,0-2.81,5.28l-4.11,0q0-4.41,4.11-7.65a15.82,15.82,0,0,1,10.1-3.24q6.2,0,9.78,3.1a11.15,11.15,0,0,1,3.68,8.65v17.53a21.58,21.58,0,0,0,1.13,8v.41ZM992.46,291a13.67,13.67,0,0,0,7.34-2,11.65,11.65,0,0,0,4.71-5.3v-8.15h-7.32q-6.13.06-9.59,2.24a6.73,6.73,0,0,0-3.46,6,6.64,6.64,0,0,0,2.31,5.17A8.76,8.76,0,0,0,992.46,291Z"/><path class="cls-2" d="M1025.88,247.41v9.49h7.67v3.35h-7.67V285a7.76,7.76,0,0,0,1.11,4.59,4.3,4.3,0,0,0,3.72,1.51,27,27,0,0,0,3.32-.34l.17,3.32a13.31,13.31,0,0,1-4.39.58c-2.8,0-4.85-.82-6.12-2.45s-1.92-4-1.92-7.21V260.25H1015V256.9h6.82v-9.49Z"/><path class="cls-2" d="M1039.09,274.87a21.83,21.83,0,0,1,2.07-9.62,15.58,15.58,0,0,1,14.44-9,15.23,15.23,0,0,1,12,5.19q4.59,5.19,4.59,13.75V276a22,22,0,0,1-2.07,9.68,15.47,15.47,0,0,1-5.84,6.62,16,16,0,0,1-8.6,2.33,15.25,15.25,0,0,1-12-5.19q-4.6-5.19-4.61-13.75Zm4.11,1.13a16.84,16.84,0,0,0,3.44,10.91,11.65,11.65,0,0,0,18,0q3.45-4.26,3.44-11.25v-.79a18.83,18.83,0,0,0-1.57-7.77,12.63,12.63,0,0,0-4.42-5.46,11.26,11.26,0,0,0-6.5-1.93,11,11,0,0,0-8.94,4.29q-3.47,4.31-3.46,11.25Z"/><path class="cls-2" d="M1097.74,260.39a15.2,15.2,0,0,0-2.77-.24,10,10,0,0,0-6.49,2.14,11.72,11.72,0,0,0-3.78,6.21v25.44h-4.07v-37h4l.07,5.89a10.89,10.89,0,0,1,10.44-6.58,6.73,6.73,0,0,1,2.71.45Z"/><path class="cls-2" d="M1104,246.2a2.76,2.76,0,0,1,.75-2,2.68,2.68,0,0,1,2-.8,2.74,2.74,0,0,1,2.07.8,2.69,2.69,0,0,1,.77,2,2.63,2.63,0,0,1-.77,1.94,2.77,2.77,0,0,1-2.07.78,2.63,2.63,0,0,1-2.8-2.72Zm4.82,47.74h-4.11v-37h4.11Z"/><path class="cls-2" d="M1117.67,274.87a21.83,21.83,0,0,1,2.07-9.62,15.58,15.58,0,0,1,14.43-9,15.24,15.24,0,0,1,12,5.19q4.59,5.19,4.59,13.75V276a21.9,21.9,0,0,1-2.08,9.68,15.45,15.45,0,0,1-5.83,6.62,16,16,0,0,1-8.6,2.33,15.23,15.23,0,0,1-12-5.19q-4.6-5.19-4.61-13.75Zm4.11,1.13a16.84,16.84,0,0,0,3.44,10.91,11.65,11.65,0,0,0,18,0q3.45-4.26,3.44-11.25v-.79a18.83,18.83,0,0,0-1.57-7.77,12.7,12.7,0,0,0-4.42-5.46,11.27,11.27,0,0,0-6.51-1.93,10.94,10.94,0,0,0-8.93,4.29q-3.46,4.31-3.46,11.25Z"/><path class="cls-2" d="M1174.61,275.08q0-8.62,3.85-13.75a12.41,12.41,0,0,1,10.46-5.12,12.9,12.9,0,0,1,11.44,5.93V241.35h4.07v52.59h-3.83l-.17-4.93q-3.95,5.63-11.58,5.62a12.36,12.36,0,0,1-10.32-5.15q-3.91-5.16-3.92-13.92Zm4.14.72q0,7.08,2.85,11.18a9.2,9.2,0,0,0,8,4.09q7.56,0,10.75-6.68V267c-2.12-4.82-5.69-7.23-10.68-7.23a9.32,9.32,0,0,0-8,4.06Q1178.75,267.9,1178.75,275.8Z"/><path class="cls-2" d="M1229.56,294.63a16.11,16.11,0,0,1-8.54-2.33,15.88,15.88,0,0,1-5.94-6.49,20.27,20.27,0,0,1-2.12-9.33V275a21.8,21.8,0,0,1,2.07-9.62,16.45,16.45,0,0,1,5.77-6.73,14.25,14.25,0,0,1,8-2.45,13.38,13.38,0,0,1,10.7,4.61q4,4.6,4,12.58v2.29H1217v.79a15.57,15.57,0,0,0,3.61,10.5,11.52,11.52,0,0,0,9.1,4.19,13.33,13.33,0,0,0,5.8-1.2,12.82,12.82,0,0,0,4.57-3.83l2.57,1.95Q1238.15,294.63,1229.56,294.63Zm-.75-34.92a10.24,10.24,0,0,0-7.79,3.39,15.64,15.64,0,0,0-3.85,9.1h22.22v-.44a13.58,13.58,0,0,0-3.05-8.7A9.42,9.42,0,0,0,1228.81,259.71Z"/><path class="cls-2" d="M1256,293.94h-4.11V241.35H1256Z"/><path class="cls-2" d="M1321.15,288a14.07,14.07,0,0,1-6.86,4.86,29.58,29.58,0,0,1-10.46,1.75,19.44,19.44,0,0,1-10.41-2.81,18.62,18.62,0,0,1-7.05-7.94,26.85,26.85,0,0,1-2.54-11.78v-6.3q0-10.38,5.24-16.38t14.07-6q7.71,0,12.4,3.92a16.22,16.22,0,0,1,5.58,10.8h-4.21a13,13,0,0,0-4.47-8.33,14.37,14.37,0,0,0-9.26-2.83,13.51,13.51,0,0,0-11.06,5q-4.08,5-4.08,14v5.9a24.58,24.58,0,0,0,1.94,10,15.41,15.41,0,0,0,5.54,6.77,14.68,14.68,0,0,0,8.31,2.4,23.15,23.15,0,0,0,9.34-1.71,10.19,10.19,0,0,0,3.77-2.64V273.85h-13.39v-3.56h17.6Z"/><path class="cls-2" d="M1355.53,293.94a19.55,19.55,0,0,1-.79-5.17,14.31,14.31,0,0,1-5.49,4.34,17,17,0,0,1-7.07,1.52,12.39,12.39,0,0,1-8.65-3,9.72,9.72,0,0,1-3.3-7.53,9.91,9.91,0,0,1,4.5-8.56q4.5-3.15,12.55-3.15h7.43V268.2a8.13,8.13,0,0,0-2.45-6.25q-2.44-2.28-7.14-2.28a11.19,11.19,0,0,0-7.09,2.19,6.52,6.52,0,0,0-2.81,5.28l-4.1,0q0-4.41,4.1-7.65a15.82,15.82,0,0,1,10.11-3.24q6.2,0,9.77,3.1a11.12,11.12,0,0,1,3.68,8.65v17.53a21.79,21.79,0,0,0,1.13,8v.41ZM1342.65,291a13.73,13.73,0,0,0,7.35-2,11.65,11.65,0,0,0,4.71-5.3v-8.15h-7.33c-4.09,0-7.28.79-9.59,2.24a6.75,6.75,0,0,0-3.46,6,6.61,6.61,0,0,0,2.32,5.17A8.73,8.73,0,0,0,1342.65,291Z"/><path class="cls-2" d="M1391.89,284.53a5.85,5.85,0,0,0-2.45-4.9,19,19,0,0,0-7.38-2.89,33.72,33.72,0,0,1-7.65-2.4,10.22,10.22,0,0,1-4-3.3,8.25,8.25,0,0,1-1.32-4.73,8.81,8.81,0,0,1,3.67-7.24,14.83,14.83,0,0,1,9.38-2.86q6.2,0,9.94,3.07a9.82,9.82,0,0,1,3.75,8h-4.11a6.62,6.62,0,0,0-2.72-5.41,12.32,12.32,0,0,0-13.35-.36,5.56,5.56,0,0,0-2.45,4.68,5,5,0,0,0,2,4.29c1.36,1,3.83,1.95,7.43,2.79a35.14,35.14,0,0,1,8.08,2.71,10.49,10.49,0,0,1,4,3.46,9.5,9.5,0,0,1-2.49,12.39,16.15,16.15,0,0,1-9.87,2.81q-6.48,0-10.5-3.13a9.65,9.65,0,0,1-4-7.93h4.11a7.13,7.13,0,0,0,3,5.6,12.42,12.42,0,0,0,7.38,2,11.65,11.65,0,0,0,6.91-1.88A5.65,5.65,0,0,0,1391.89,284.53Z"/><path class="cls-2" d="M1411.58,247.41v9.49h7.67v3.35h-7.67V285a7.76,7.76,0,0,0,1.11,4.59,4.3,4.3,0,0,0,3.72,1.51,27,27,0,0,0,3.32-.34l.17,3.32a13.31,13.31,0,0,1-4.39.58c-2.8,0-4.85-.82-6.12-2.45s-1.92-4-1.92-7.21V260.25h-6.82V256.9h6.82v-9.49Z"/><path class="cls-2" d="M1424.79,274.87a21.83,21.83,0,0,1,2.07-9.62,15.58,15.58,0,0,1,14.44-9,15.23,15.23,0,0,1,12,5.19q4.59,5.19,4.59,13.75V276a22,22,0,0,1-2.07,9.68,15.47,15.47,0,0,1-5.84,6.62,16,16,0,0,1-8.6,2.33,15.25,15.25,0,0,1-12-5.19q-4.61-5.19-4.61-13.75Zm4.11,1.13a16.84,16.84,0,0,0,3.44,10.91,11.65,11.65,0,0,0,18,0q3.45-4.26,3.44-11.25v-.79a18.83,18.83,0,0,0-1.57-7.77,12.63,12.63,0,0,0-4.42-5.46,11.26,11.26,0,0,0-6.5-1.93,11,11,0,0,0-8.94,4.29q-3.46,4.31-3.46,11.25Z"/><path class="cls-2" d="M1511.79,270.63h-23.24v23.31h-4.22V244.09h30.89v3.56h-26.67v19.42h23.24Z"/><path class="cls-2" d="M1522.58,246.2a2.76,2.76,0,0,1,.75-2,2.7,2.7,0,0,1,2.06-.8,2.77,2.77,0,0,1,2.07.8,2.73,2.73,0,0,1,.77,2,2.67,2.67,0,0,1-.77,1.94,2.8,2.8,0,0,1-2.07.78,2.73,2.73,0,0,1-2.06-.78A2.69,2.69,0,0,1,1522.58,246.2Zm4.83,47.74h-4.11v-37h4.11Z"/><path class="cls-2" d="M1560.72,284.53a5.82,5.82,0,0,0-2.45-4.9,19,19,0,0,0-7.37-2.89,33.66,33.66,0,0,1-7.66-2.4,10.22,10.22,0,0,1-4-3.3,8.25,8.25,0,0,1-1.32-4.73,8.83,8.83,0,0,1,3.67-7.24,14.83,14.83,0,0,1,9.38-2.86q6.19,0,10,3.07a9.82,9.82,0,0,1,3.75,8h-4.11a6.63,6.63,0,0,0-2.73-5.41,12.32,12.32,0,0,0-13.35-.36,5.56,5.56,0,0,0-2.45,4.68,5,5,0,0,0,2,4.29q2,1.53,7.43,2.79a35,35,0,0,1,8.08,2.71,10.49,10.49,0,0,1,4,3.46,9.51,9.51,0,0,1-2.48,12.39,16.18,16.18,0,0,1-9.88,2.81q-6.47,0-10.49-3.13a9.63,9.63,0,0,1-4-7.93h4.11a7.13,7.13,0,0,0,3,5.6,12.42,12.42,0,0,0,7.38,2,11.7,11.7,0,0,0,6.92-1.88A5.67,5.67,0,0,0,1560.72,284.53Z"/><path class="cls-2" d="M1587.74,291.17a10.81,10.81,0,0,0,7.17-2.41,8.49,8.49,0,0,0,3.13-6.25H1602a11.57,11.57,0,0,1-2.12,6.18,13.27,13.27,0,0,1-5.19,4.36,15.65,15.65,0,0,1-6.93,1.58,14.3,14.3,0,0,1-11.56-5.07q-4.26-5.07-4.26-13.63V274.7a23.15,23.15,0,0,1,1.92-9.69,14.72,14.72,0,0,1,5.49-6.5,15.19,15.19,0,0,1,8.37-2.3,14.3,14.3,0,0,1,10,3.63,13.22,13.22,0,0,1,4.23,9.55H1598a9.91,9.91,0,0,0-10.34-9.68,10.2,10.2,0,0,0-8.61,4q-3.06,4-3.06,11.23v1.2q0,7.08,3.06,11.06A10.28,10.28,0,0,0,1587.74,291.17Z"/><path class="cls-2" d="M1633.55,293.94a19.14,19.14,0,0,1-.79-5.17,14.27,14.27,0,0,1-5.5,4.34,16.89,16.89,0,0,1-7.07,1.52,12.38,12.38,0,0,1-8.64-3,9.72,9.72,0,0,1-3.3-7.53,9.91,9.91,0,0,1,4.5-8.56q4.5-3.15,12.55-3.15h7.43V268.2a8.13,8.13,0,0,0-2.45-6.25q-2.44-2.28-7.14-2.28a11.17,11.17,0,0,0-7.09,2.19,6.52,6.52,0,0,0-2.81,5.28l-4.11,0q0-4.41,4.11-7.65a15.82,15.82,0,0,1,10.1-3.24q6.2,0,9.78,3.1a11.15,11.15,0,0,1,3.68,8.65v17.53a21.79,21.79,0,0,0,1.13,8v.41ZM1620.67,291a13.73,13.73,0,0,0,7.35-2,11.76,11.76,0,0,0,4.71-5.3v-8.15h-7.33c-4.09,0-7.28.79-9.59,2.24a6.75,6.75,0,0,0-3.46,6,6.64,6.64,0,0,0,2.31,5.17A8.78,8.78,0,0,0,1620.67,291Z"/><path class="cls-2" d="M1652.31,293.94h-4.11V241.35h4.11Z"/><path class="cls-2" d="M1694.84,294.63a16.14,16.14,0,0,1-8.55-2.33,15.88,15.88,0,0,1-5.94-6.49,20.27,20.27,0,0,1-2.12-9.33V275a21.8,21.8,0,0,1,2.07-9.62,16.45,16.45,0,0,1,5.77-6.73,14.27,14.27,0,0,1,8-2.45,13.37,13.37,0,0,1,10.7,4.61q4,4.6,4,12.58v2.29H1682.3v.79a15.53,15.53,0,0,0,3.62,10.5,11.48,11.48,0,0,0,9.09,4.19,13.33,13.33,0,0,0,5.8-1.2,12.82,12.82,0,0,0,4.57-3.83l2.57,1.95Q1703.44,294.63,1694.84,294.63Zm-.76-34.92a10.24,10.24,0,0,0-7.79,3.39,15.64,15.64,0,0,0-3.85,9.1h22.22v-.44a13.63,13.63,0,0,0-3-8.7A9.44,9.44,0,0,0,1694.08,259.71Z"/><path class="cls-2" d="M1720.62,256.9l.13,6.33A14.79,14.79,0,0,1,1726,258a13.51,13.51,0,0,1,6.88-1.8q6,0,8.87,3.36t2.94,10.06v24.31h-4.07V269.6c0-3.31-.73-5.77-2.11-7.4s-3.59-2.43-6.62-2.43a10.39,10.39,0,0,0-6.73,2.38,13.94,13.94,0,0,0-4.33,6.42v25.37h-4.08v-37Z"/><path class="cls-2" d="M1808.54,278.4q-.86,7.88-5.63,12.05t-12.72,4.18a17.65,17.65,0,0,1-9.81-2.77,18.09,18.09,0,0,1-6.59-7.86,28,28,0,0,1-2.36-11.63V265.9a28.15,28.15,0,0,1,2.33-11.78,17.89,17.89,0,0,1,6.69-7.92,18.25,18.25,0,0,1,10-2.79q8,0,12.65,4.31t5.39,12h-4.24q-1.58-12.71-13.8-12.7a13.07,13.07,0,0,0-10.8,5.07q-4,5.07-4,14v6.1q0,8.64,3.92,13.78a12.64,12.64,0,0,0,10.6,5.14q6.61,0,10-3.17t4.15-9.5Z"/><path class="cls-2" d="M1821.9,263.16a14.35,14.35,0,0,1,5.17-5.13,13.54,13.54,0,0,1,6.88-1.82q6,0,8.86,3.36t3,10.06v24.31h-4.07V269.6c0-3.31-.73-5.77-2.11-7.4s-3.59-2.43-6.63-2.43a10.38,10.38,0,0,0-6.72,2.38,13.94,13.94,0,0,0-4.33,6.42v25.37h-4.08V241.35h4.08Z"/><path class="cls-2" d="M1856.07,246.2a2.76,2.76,0,0,1,.75-2,2.68,2.68,0,0,1,2-.8,2.74,2.74,0,0,1,2.07.8,2.69,2.69,0,0,1,.77,2,2.63,2.63,0,0,1-.77,1.94,2.77,2.77,0,0,1-2.07.78,2.63,2.63,0,0,1-2.8-2.72Zm4.82,47.74h-4.11v-37h4.11Z"/><path class="cls-2" d="M1876.61,293.94h-4.11V241.35h4.11Z"/><path class="cls-2" d="M1902.08,294.63a16.11,16.11,0,0,1-8.54-2.33,15.82,15.82,0,0,1-5.94-6.49,20.15,20.15,0,0,1-2.12-9.33V275a21.8,21.8,0,0,1,2.07-9.62,16.45,16.45,0,0,1,5.77-6.73,14.22,14.22,0,0,1,8-2.45,13.38,13.38,0,0,1,10.7,4.61q4,4.6,4,12.58v2.29h-26.43v.79a15.57,15.57,0,0,0,3.61,10.5,11.51,11.51,0,0,0,9.09,4.19,13.34,13.34,0,0,0,5.81-1.2,12.91,12.91,0,0,0,4.57-3.83l2.57,1.95Q1910.67,294.63,1902.08,294.63Zm-.75-34.92a10.24,10.24,0,0,0-7.79,3.39,15.58,15.58,0,0,0-3.85,9.1h22.22v-.44a13.63,13.63,0,0,0-3.05-8.7A9.43,9.43,0,0,0,1901.33,259.71Z"/><rect class="cls-2" x="415.28" width="6.27" height="339.16"/><polygon class="cls-2" points="291.86 330.8 219.64 139.08 197.92 145.04 270.88 338.71 291.86 330.8"/><path class="cls-2" d="M291.86,330.8c1.57,4.16-1.86,9.3-7.66,11.48s-11.76.59-13.32-3.57,1.86-9.29,7.65-11.47S290.29,326.65,291.86,330.8Z"/><polygon class="cls-2" points="177.45 150.66 110.64 331.49 131.73 339.12 204.06 143.36 177.45 150.66"/><path class="cls-2" d="M131.73,339.12c-1.51,4.18-7.46,5.86-13.28,3.75s-9.32-7.2-7.81-11.38,7.45-5.85,13.28-3.75S133.24,334.94,131.73,339.12Z"/><polygon class="cls-2" points="189.38 147.15 189.38 340.78 211.8 340.78 211.8 141.23 189.38 147.15"/><path class="cls-2" d="M211.8,339.12c0,4.44-5,8-11.21,8s-11.21-3.6-11.21-8,5-8,11.21-8S211.8,334.68,211.8,339.12Z"/><path class="cls-2" d="M55.68,100.24l-37.06,9.39,12.56,49.56,37.05-9.38a47.8,47.8,0,0,1-12.55-49.57Z"/><path class="cls-2" d="M49,128.31c3.47,13.69-4.51,27.52-17.81,30.88s-26.9-5-30.37-18.68S5.32,113,18.62,109.63,45.52,114.62,49,128.31Z"/><path class="cls-2" d="M140.11,104a48.4,48.4,0,0,1,13-46.28L94.42,72.55l20.46,80.79,58.7-14.87A48.39,48.39,0,0,1,140.11,104Z"/><path class="cls-2" d="M140.11,104c5.65,22.31-7.06,44.78-28.39,50.18s-43.2-8.31-48.85-30.62,7.06-44.77,28.39-50.17S134.46,81.66,140.11,104Z"/><g class="cls-3"><path class="cls-2" d="M242.76,99.16,232.1,57.06A48.91,48.91,0,0,0,209,42.32l-48.8,12.35a48.2,48.2,0,0,0,20.45,80.79l48.8-12.36A48.88,48.88,0,0,0,242.76,99.16Z"/></g><path class="cls-2" d="M283.79,65.36c-5.74-22.64-.33-44.89,12.36-58.61L219.2,26.24l26.41,104.27L322.56,111C304.86,105,289.52,88,283.79,65.36Z"/><path class="cls-2" d="M322.4,1.11C298.89,7.07,285.74,35.24,293,64s32.27,47.31,55.78,41.36,36.66-34.13,29.36-62.92S345.91-4.84,322.4,1.11ZM345,90.44c-14.7,3.72-30.84-9.91-36-30.45s2.5-40.21,17.21-43.93S357,26,362.23,46.5,359.73,86.71,345,90.44Z"/><path class="cls-2" d="M189.84,89.15c7.29,28.8,32.26,47.31,55.77,41.36S282.27,96.39,275,67.59,242.71,20.28,219.2,26.24,182.54,60.36,189.84,89.15Z"/><rect class="cls-2" x="192.25" y="42.21" width="44.84" height="83.33" transform="translate(-14.02 55.27) rotate(-14.21)"/><path class="cls-2" d="M229.69,79.06a42,42,0,1,1-51-30.07A41.85,41.85,0,0,1,229.69,79.06Z"/></g></g></svg>