<svg xmlns="http://www.w3.org/2000/svg" xmlns:xlink="http://www.w3.org/1999/xlink" viewBox="0 0 175.92 175.92"><defs><style>.cls-1{fill:#fff;}.cls-2{fill:url(#radial-gradient);}.cls-3{fill:#e8e0e0;}</style><radialGradient id="radial-gradient" cx="85.81" cy="151.26" r="127.19" gradientUnits="userSpaceOnUse"><stop offset="0.17" stop-color="#c2181e"/><stop offset="0.77" stop-color="#de2925"/></radialGradient></defs><title>youtube</title><g id="Capa_2" data-name="Capa 2"><g id="Layer_1" data-name="Layer 1"><path class="cls-1" d="M175.92,139.78a36.14,36.14,0,0,1-36.13,36.14H36.14A36.14,36.14,0,0,1,0,139.78V36.13A36.13,36.13,0,0,1,36.14,0H139.79a36.13,36.13,0,0,1,36.13,36.13Z"/><path class="cls-2" d="M154.07,103.91c0,16.67-5.7,30.17-22.36,30.17H46c-16.66,0-24.14-13.5-24.14-30.17V72c0-16.67,6.77-30.17,23.43-30.17h87.13c16.67,0,21.66,13.5,21.66,30.17Z"/><polygon class="cls-1" points="74.71 69.94 110.72 88.73 74.71 107.53 74.71 69.94"/><polygon class="cls-3" points="74.71 70.22 106.03 91.17 110.72 88.73 77.49 71.39 74.71 70.18 74.71 70.22"/></g></g></svg>